<svg id="svg" version="1.1" width="400" height="400" viewBox="0 0 400 400" xmlns="http://www.w3.org/2000/svg" xmlns:xlink="http://www.w3.org/1999/xlink"><g id="svgg"><path id="path0" d="M189.165 18.600 C 70.867 29.857,-7.453 144.209,25.061 258.200 C 52.189 353.309,149.559 411.265,246.400 389.946 C 350.793 366.964,414.876 261.961,387.940 158.026 C 369.648 87.445,309.921 32.719,238.000 20.640 C 223.483 18.202,202.540 17.327,189.165 18.600 M225.600 37.378 C 348.378 52.702,414.746 187.596,351.564 293.400 C 290.107 396.314,142.772 404.240,70.491 308.521 C -10.341 201.477,59.360 47.304,193.400 36.659 C 198.607 36.245,220.429 36.733,225.600 37.378 M171.600 99.176 C 163.543 100.748,159.136 102.785,155.634 106.553 L 154.668 107.592 156.143 113.529 C 158.963 124.884,158.833 125.888,154.097 129.242 C 137.779 140.797,125.215 156.701,122.610 169.100 C 122.251 170.809,122.381 170.787,127.486 168.287 C 144.921 159.748,171.059 151.497,189.200 148.805 C 207.837 146.039,222.947 144.658,234.911 144.626 L 244.421 144.600 242.511 142.894 C 230.694 132.343,216.699 125.590,197.102 120.983 L 194.003 120.254 193.211 118.138 C 192.090 115.141,190.539 108.760,190.018 105.000 C 189.339 100.097,189.334 100.086,187.494 99.125 C 184.804 97.719,178.968 97.738,171.600 99.176 M261.121 156.380 C 259.243 156.745,258.329 157.502,258.481 158.565 C 258.595 159.362,258.846 159.402,264.000 159.445 C 274.825 159.535,282.323 163.756,286.658 172.200 C 290.097 178.900,290.694 182.147,292.611 204.600 C 293.237 211.929,293.218 211.762,294.393 220.442 C 295.944 231.890,297.907 237.748,302.243 243.865 C 312.360 258.136,333.628 256.580,336.441 241.363 C 337.485 235.712,335.725 230.504,329.301 220.243 C 323.971 211.731,322.480 207.465,323.072 202.425 C 324.964 186.331,344.480 179.929,354.873 191.993 C 356.772 194.199,357.184 194.067,357.194 191.247 C 357.202 188.972,355.491 187.285,351.002 185.138 C 342.484 181.066,333.630 182.465,326.875 188.949 C 318.112 197.362,317.963 207.706,326.412 221.200 C 330.450 227.650,332.022 230.609,332.810 233.243 C 336.550 245.750,326.607 254.484,314.020 249.747 C 305.002 246.353,298.876 235.516,297.204 220.000 C 296.955 217.690,296.670 215.440,296.570 215.000 C 296.471 214.560,296.034 209.610,295.599 204.000 C 293.973 183.027,292.894 177.125,289.520 170.732 C 284.181 160.617,271.718 154.319,261.121 156.380 M224.237 165.611 C 206.103 167.230,168.606 175.783,147.000 183.228 C 138.140 186.280,125.805 191.601,123.742 193.260 C 123.130 193.752,125.554 203.200,126.292 203.200 C 126.571 203.200,129.005 202.286,131.700 201.169 C 170.087 185.255,204.610 177.083,239.800 175.582 C 245.520 175.338,252.360 175.018,255.000 174.869 L 259.800 174.600 259.688 173.400 C 259.475 171.122,258.300 166.598,257.777 166.040 C 257.141 165.362,230.799 165.025,224.237 165.611 M235.000 201.037 C 195.811 204.057,170.424 210.097,144.000 222.690 C 140.810 224.210,137.783 225.625,137.274 225.835 C 136.355 226.212,136.365 226.238,138.431 229.008 C 145.395 238.343,153.084 245.675,172.200 261.213 C 195.792 280.388,203.471 288.322,212.119 302.462 C 213.452 304.641,225.029 304.451,225.832 302.237 C 225.919 301.997,226.440 299.166,226.990 295.948 C 230.169 277.322,236.000 260.734,249.395 232.211 C 255.441 219.336,257.951 212.085,259.382 203.356 L 259.651 201.713 258.126 201.456 C 256.310 201.150,237.866 200.816,235.000 201.037 M222.000 308.665 C 220.570 308.987,218.455 309.179,217.300 309.092 C 214.765 308.901,214.798 308.546,216.770 314.811 C 221.872 331.022,223.027 333.253,225.976 332.605 C 227.622 332.244,227.634 332.113,226.812 323.126 C 226.403 318.657,225.942 313.425,225.787 311.500 C 225.609 309.287,225.339 308.015,225.053 308.040 C 224.804 308.062,223.430 308.344,222.000 308.665 " stroke="none" fill="#050504" fill-rule="evenodd"></path><path id="path1" d="M197.200 36.663 C 128.994 41.344,72.673 81.786,48.276 143.600 C 3.742 256.437,87.868 377.653,209.200 375.472 C 343.772 373.053,421.797 221.832,345.968 110.400 C 312.986 61.932,254.123 32.757,197.200 36.663 M186.110 98.401 C 189.338 99.398,189.490 99.587,189.995 103.231 C 191.313 112.733,193.624 120.400,195.171 120.400 C 195.579 120.400,198.048 120.951,200.657 121.624 C 218.017 126.106,229.490 131.707,241.200 141.417 C 246.165 145.534,246.210 145.606,243.726 145.380 C 233.001 144.408,215.356 145.436,195.200 148.208 C 172.519 151.328,148.450 158.513,128.881 168.006 C 121.360 171.655,121.365 171.656,122.988 166.764 C 127.462 153.275,138.377 139.961,153.964 128.980 L 157.400 126.559 157.373 122.980 C 157.351 120.205,157.003 118.067,155.825 113.476 L 154.305 107.552 155.253 106.528 C 161.042 100.266,177.832 95.844,186.110 98.401 M272.294 156.641 C 288.012 160.733,294.077 171.875,296.201 200.563 C 296.542 205.162,296.987 210.112,297.190 211.563 C 297.393 213.013,297.750 216.090,297.983 218.400 C 299.998 238.395,308.241 250.193,320.200 250.198 C 334.132 250.205,336.551 239.051,326.183 222.611 C 319.558 212.105,317.975 205.880,320.037 198.426 C 324.269 183.120,342.090 176.983,354.600 186.523 C 357.078 188.413,357.582 189.202,357.586 191.200 C 357.593 194.964,356.808 195.729,355.310 193.415 C 347.346 181.119,325.201 187.802,324.482 202.718 C 324.164 209.322,324.804 211.245,330.312 220.232 C 336.255 229.930,337.950 234.663,337.389 240.000 C 335.721 255.874,315.850 260.327,303.757 247.538 C 298.867 242.366,295.227 233.031,293.800 222.000 C 292.724 213.681,292.478 211.383,291.612 201.600 C 289.716 180.166,288.989 176.728,285.116 170.901 C 280.025 163.241,274.229 160.239,264.486 160.214 C 258.400 160.199,258.020 160.078,258.006 158.149 C 257.989 155.733,265.686 154.921,272.294 156.641 M258.206 165.648 C 258.780 166.235,260.567 174.766,260.194 175.139 C 260.073 175.260,254.715 175.491,248.287 175.651 C 208.449 176.646,175.598 183.736,135.360 200.022 C 130.497 201.990,126.326 203.600,126.091 203.600 C 125.588 203.600,125.109 202.223,124.044 197.716 C 123.616 195.910,123.174 194.281,123.060 194.097 C 122.607 193.363,125.953 191.481,134.629 187.587 C 152.998 179.344,201.135 167.378,224.600 165.221 C 231.023 164.631,257.542 164.967,258.206 165.648 M256.200 200.742 L 259.800 201.000 259.741 203.000 C 259.590 208.082,256.345 218.762,252.540 226.700 C 251.143 229.615,248.857 234.385,247.460 237.300 C 236.134 260.935,229.439 280.900,226.769 299.000 C 226.211 302.780,226.108 302.911,223.000 303.808 C 218.256 305.176,213.098 304.554,211.800 302.459 C 203.474 289.015,195.664 280.686,177.601 265.989 C 153.494 246.374,146.881 240.207,138.255 229.295 C 136.115 226.589,135.760 225.603,136.924 225.598 C 137.186 225.597,139.631 224.514,142.357 223.191 C 155.290 216.916,166.398 212.657,177.800 209.604 C 191.518 205.930,212.123 202.595,231.819 200.860 C 236.523 200.446,251.078 200.376,256.200 200.742 M226.567 316.100 C 226.945 320.775,227.397 326.040,227.569 327.800 C 228.025 332.439,227.393 333.353,224.059 332.870 C 222.535 332.649,219.620 325.471,215.461 311.700 L 214.465 308.400 218.332 308.353 C 220.460 308.327,222.740 308.168,223.400 308.000 C 226.012 307.335,225.816 306.834,226.567 316.100 " stroke="none" fill="#fbe25b" fill-rule="evenodd"></path><path id="path2" d="M196.105 36.687 C 196.714 36.779,197.614 36.777,198.105 36.682 C 198.597 36.587,198.100 36.511,197.000 36.514 C 195.900 36.517,195.497 36.595,196.105 36.687 M214.105 36.687 C 214.714 36.779,215.614 36.777,216.105 36.682 C 216.597 36.587,216.100 36.511,215.000 36.514 C 213.900 36.517,213.497 36.595,214.105 36.687 M190.500 37.076 C 190.885 37.176,191.515 37.176,191.900 37.076 C 192.285 36.975,191.970 36.893,191.200 36.893 C 190.430 36.893,190.115 36.975,190.500 37.076 M318.800 79.325 C 318.800 79.394,319.385 79.979,320.100 80.625 L 321.400 81.800 320.225 80.500 C 319.130 79.288,318.800 79.016,318.800 79.325 M85.792 86.100 L 81.800 90.200 85.900 86.208 C 89.708 82.499,90.182 82.000,89.892 82.000 C 89.833 82.000,87.988 83.845,85.792 86.100 M330.400 90.925 C 330.400 90.994,330.985 91.579,331.700 92.225 L 333.000 93.400 331.825 92.100 C 330.730 90.888,330.400 90.616,330.400 90.925 M179.100 97.893 C 180.035 97.977,181.565 97.977,182.500 97.893 C 183.435 97.809,182.670 97.740,180.800 97.740 C 178.930 97.740,178.165 97.809,179.100 97.893 M174.200 98.400 C 173.130 98.672,173.108 98.705,174.000 98.705 C 174.550 98.705,175.540 98.568,176.200 98.400 C 177.270 98.128,177.292 98.095,176.400 98.095 C 175.850 98.095,174.860 98.232,174.200 98.400 M187.800 99.262 C 188.240 99.503,188.825 99.981,189.100 100.326 C 189.375 100.671,189.600 100.749,189.600 100.499 C 189.600 99.991,188.046 98.793,187.411 98.812 C 187.185 98.819,187.360 99.021,187.800 99.262 M155.631 106.168 C 154.373 107.466,154.328 107.614,154.743 109.068 L 155.180 110.600 154.962 109.048 C 154.771 107.690,154.907 107.327,156.051 106.148 C 156.769 105.407,157.267 104.800,157.157 104.800 C 157.047 104.800,156.360 105.416,155.631 106.168 M156.480 115.800 C 156.480 116.240,156.624 117.050,156.800 117.600 C 157.054 118.392,157.120 118.433,157.120 117.800 C 157.120 117.360,156.976 116.550,156.800 116.000 C 156.546 115.208,156.480 115.167,156.480 115.800 M157.728 123.600 C 157.728 125.030,157.801 125.615,157.889 124.900 C 157.978 124.185,157.978 123.015,157.889 122.300 C 157.801 121.585,157.728 122.170,157.728 123.600 M152.795 129.758 C 151.142 130.930,149.524 132.210,149.199 132.602 C 148.684 133.221,149.864 132.396,155.030 128.522 C 157.360 126.774,155.727 127.677,152.795 129.758 M226.400 131.379 C 226.400 131.489,226.940 131.859,227.600 132.200 C 228.260 132.541,228.800 132.731,228.800 132.621 C 228.800 132.511,228.260 132.141,227.600 131.800 C 226.940 131.459,226.400 131.269,226.400 131.379 M140.038 141.100 C 133.540 147.644,128.986 152.800,129.703 152.800 C 129.786 152.800,130.982 151.369,132.359 149.620 C 133.737 147.871,137.913 143.461,141.639 139.820 C 145.365 136.179,148.294 133.200,148.148 133.200 C 148.001 133.200,144.352 136.755,140.038 141.100 M242.158 142.537 L 244.517 144.722 237.958 144.536 C 234.351 144.434,229.420 144.512,227.000 144.710 C 222.961 145.039,223.354 145.069,231.800 145.071 C 236.860 145.072,242.047 145.182,243.326 145.315 C 246.144 145.607,246.123 145.528,242.600 142.645 L 239.800 140.353 242.158 142.537 M218.905 145.487 C 219.514 145.579,220.414 145.577,220.905 145.482 C 221.397 145.387,220.900 145.311,219.800 145.314 C 218.700 145.317,218.297 145.395,218.905 145.487 M214.305 145.883 C 214.802 145.979,215.522 145.975,215.905 145.875 C 216.287 145.775,215.880 145.696,215.000 145.701 C 214.120 145.705,213.807 145.787,214.305 145.883 M209.900 146.282 C 210.395 146.378,211.205 146.378,211.700 146.282 C 212.195 146.187,211.790 146.109,210.800 146.109 C 209.810 146.109,209.405 146.187,209.900 146.282 M206.100 146.676 C 206.485 146.776,207.115 146.776,207.500 146.676 C 207.885 146.575,207.570 146.493,206.800 146.493 C 206.030 146.493,205.715 146.575,206.100 146.676 M127.618 155.923 C 126.728 157.421,126.002 158.816,126.005 159.023 C 126.007 159.230,126.472 158.590,127.036 157.600 C 127.601 156.610,128.423 155.215,128.864 154.500 C 129.305 153.785,129.569 153.200,129.450 153.200 C 129.332 153.200,128.508 154.425,127.618 155.923 M264.100 155.887 C 264.705 155.978,265.695 155.978,266.300 155.887 C 266.905 155.795,266.410 155.720,265.200 155.720 C 263.990 155.720,263.495 155.795,264.100 155.887 M259.291 156.416 C 258.134 156.881,257.779 157.810,258.249 159.147 L 258.620 160.200 264.410 160.214 C 274.236 160.239,280.010 163.218,285.116 170.901 C 288.989 176.728,289.716 180.166,291.612 201.600 C 293.876 227.187,295.886 236.336,300.929 244.000 C 311.717 260.396,335.520 257.784,337.389 240.000 C 337.950 234.663,336.255 229.930,330.312 220.232 C 324.804 211.245,324.164 209.322,324.482 202.718 C 325.201 187.802,347.346 181.119,355.310 193.415 C 356.808 195.729,357.593 194.964,357.586 191.200 C 357.582 189.202,357.078 188.413,354.600 186.523 C 342.090 176.983,324.269 183.120,320.037 198.426 C 317.975 205.880,319.558 212.105,326.183 222.611 C 336.551 239.051,334.132 250.205,320.200 250.198 C 308.241 250.193,299.998 238.395,297.983 218.400 C 297.750 216.090,297.393 213.013,297.190 211.563 C 296.987 210.112,296.542 205.162,296.201 200.563 C 294.601 178.953,292.365 171.535,285.243 164.207 C 281.797 160.661,274.259 156.417,271.400 156.412 C 270.960 156.411,272.070 156.922,273.867 157.548 C 282.902 160.693,288.728 166.773,291.739 176.200 C 293.661 182.218,294.224 186.273,295.599 204.000 C 296.034 209.610,296.471 214.560,296.570 215.000 C 296.670 215.440,296.955 217.690,297.204 220.000 C 298.876 235.516,305.002 246.353,314.020 249.747 C 326.607 254.484,336.550 245.750,332.810 233.243 C 332.022 230.609,330.450 227.650,326.412 221.200 C 317.963 207.706,318.112 197.362,326.875 188.949 C 333.630 182.465,342.484 181.066,351.002 185.138 C 355.491 187.285,357.202 188.972,357.194 191.247 C 357.184 194.067,356.772 194.199,354.873 191.993 C 344.480 179.929,324.964 186.331,323.072 202.425 C 322.480 207.465,323.971 211.731,329.301 220.243 C 335.725 230.504,337.485 235.712,336.441 241.363 C 333.628 256.580,312.360 258.136,302.243 243.865 C 297.907 237.748,295.944 231.890,294.393 220.442 C 293.218 211.762,293.237 211.929,292.611 204.600 C 290.694 182.147,290.097 178.900,286.658 172.200 C 282.323 163.756,274.825 159.535,264.000 159.445 C 258.846 159.402,258.595 159.362,258.481 158.565 C 258.329 157.502,259.243 156.745,261.121 156.380 C 262.476 156.116,262.500 156.090,261.400 156.071 C 260.740 156.060,259.791 156.215,259.291 156.416 M156.200 156.800 C 155.696 157.017,155.622 157.144,156.000 157.144 C 156.330 157.144,156.960 156.989,157.400 156.800 C 157.904 156.583,157.978 156.456,157.600 156.456 C 157.270 156.456,156.640 156.611,156.200 156.800 M242.693 165.183 C 258.989 165.528,258.061 165.319,258.803 168.814 C 259.084 170.137,259.390 171.143,259.485 171.049 C 259.829 170.704,258.682 166.000,258.144 165.554 C 257.755 165.230,253.234 165.062,242.895 164.985 L 228.200 164.875 242.693 165.183 M224.300 165.489 C 225.015 165.578,226.185 165.578,226.900 165.489 C 227.615 165.401,227.030 165.328,225.600 165.328 C 224.170 165.328,223.585 165.401,224.300 165.489 M219.900 165.882 C 220.395 165.978,221.205 165.978,221.700 165.882 C 222.195 165.787,221.790 165.709,220.800 165.709 C 219.810 165.709,219.405 165.787,219.900 165.882 M126.800 168.600 C 122.614 170.766,122.268 170.807,122.554 169.100 L 122.771 167.800 122.323 169.117 C 121.584 171.289,122.328 171.267,126.800 168.984 C 129.110 167.806,130.820 166.841,130.600 166.841 C 130.380 166.840,128.670 167.632,126.800 168.600 M190.000 171.200 C 189.208 171.454,189.167 171.520,189.800 171.520 C 190.240 171.520,191.050 171.376,191.600 171.200 C 192.392 170.946,192.433 170.880,191.800 170.880 C 191.360 170.880,190.550 171.024,190.000 171.200 M259.724 173.000 C 259.815 174.921,260.688 174.722,250.200 175.174 L 242.200 175.518 251.067 175.459 C 261.087 175.392,260.506 175.541,260.016 173.175 L 259.648 171.400 259.724 173.000 M184.000 172.600 C 183.010 172.887,182.470 173.136,182.800 173.153 C 183.130 173.170,184.300 172.934,185.400 172.628 C 186.500 172.322,187.040 172.073,186.600 172.075 C 186.160 172.077,184.990 172.313,184.000 172.600 M176.000 174.400 C 175.208 174.654,175.167 174.720,175.800 174.720 C 176.240 174.720,177.050 174.576,177.600 174.400 C 178.392 174.146,178.433 174.080,177.800 174.080 C 177.360 174.080,176.550 174.224,176.000 174.400 M173.000 175.200 C 172.496 175.417,172.422 175.544,172.800 175.544 C 173.130 175.544,173.760 175.389,174.200 175.200 C 174.704 174.983,174.778 174.856,174.400 174.856 C 174.070 174.856,173.440 175.011,173.000 175.200 M229.800 176.046 C 227.380 176.229,225.040 176.461,224.600 176.562 C 223.747 176.758,229.880 176.479,236.800 176.007 L 241.000 175.721 237.600 175.717 C 235.730 175.715,232.220 175.863,229.800 176.046 M220.700 177.082 C 221.195 177.178,222.005 177.178,222.500 177.082 C 222.995 176.987,222.590 176.909,221.600 176.909 C 220.610 176.909,220.205 176.987,220.700 177.082 M217.105 177.483 C 217.602 177.579,218.322 177.575,218.705 177.475 C 219.087 177.375,218.680 177.296,217.800 177.301 C 216.920 177.305,216.607 177.387,217.105 177.483 M162.600 178.000 C 162.096 178.217,162.022 178.344,162.400 178.344 C 162.730 178.344,163.360 178.189,163.800 178.000 C 164.304 177.783,164.378 177.656,164.000 177.656 C 163.670 177.656,163.040 177.811,162.600 178.000 M213.700 177.876 C 214.085 177.976,214.715 177.976,215.100 177.876 C 215.485 177.775,215.170 177.693,214.400 177.693 C 213.630 177.693,213.315 177.775,213.700 177.876 M194.800 181.200 C 194.008 181.454,193.967 181.520,194.600 181.520 C 195.040 181.520,195.850 181.376,196.400 181.200 C 197.192 180.946,197.233 180.880,196.600 180.880 C 196.160 180.880,195.350 181.024,194.800 181.200 M147.800 182.586 C 146.255 183.293,146.974 183.303,148.800 182.600 C 149.570 182.303,149.930 182.055,149.600 182.048 C 149.270 182.042,148.460 182.283,147.800 182.586 M189.200 182.400 C 188.408 182.654,188.367 182.720,189.000 182.720 C 189.440 182.720,190.250 182.576,190.800 182.400 C 191.592 182.146,191.633 182.080,191.000 182.080 C 190.560 182.080,189.750 182.224,189.200 182.400 M184.000 183.600 C 183.208 183.854,183.167 183.920,183.800 183.920 C 184.240 183.920,185.050 183.776,185.600 183.600 C 186.392 183.346,186.433 183.280,185.800 183.280 C 185.360 183.280,184.550 183.424,184.000 183.600 M178.200 185.200 C 177.696 185.417,177.622 185.544,178.000 185.544 C 178.330 185.544,178.960 185.389,179.400 185.200 C 179.904 184.983,179.978 184.856,179.600 184.856 C 179.270 184.856,178.640 185.011,178.200 185.200 M136.000 187.000 C 135.450 187.314,135.180 187.572,135.400 187.572 C 135.620 187.572,136.250 187.314,136.800 187.000 C 137.350 186.686,137.620 186.428,137.400 186.428 C 137.180 186.428,136.550 186.686,136.000 187.000 M171.000 187.200 C 170.496 187.417,170.422 187.544,170.800 187.544 C 171.130 187.544,171.760 187.389,172.200 187.200 C 172.704 186.983,172.778 186.856,172.400 186.856 C 172.070 186.856,171.440 187.011,171.000 187.200 M132.800 188.400 C 132.030 188.822,131.580 189.166,131.800 189.166 C 132.020 189.166,132.830 188.822,133.600 188.400 C 134.370 187.978,134.820 187.634,134.600 187.634 C 134.380 187.634,133.570 187.978,132.800 188.400 M165.800 188.800 C 165.296 189.017,165.222 189.144,165.600 189.144 C 165.930 189.144,166.560 188.989,167.000 188.800 C 167.504 188.583,167.578 188.456,167.200 188.456 C 166.870 188.456,166.240 188.611,165.800 188.800 M374.893 190.800 C 374.893 191.570,374.975 191.885,375.076 191.500 C 375.176 191.115,375.176 190.485,375.076 190.100 C 374.975 189.715,374.893 190.030,374.893 190.800 M159.000 190.986 C 157.455 191.693,158.174 191.703,160.000 191.000 C 160.770 190.703,161.130 190.455,160.800 190.448 C 160.470 190.442,159.660 190.683,159.000 190.986 M123.446 193.012 C 122.909 193.548,122.937 194.800,123.486 194.800 C 123.596 194.800,123.584 194.535,123.460 194.211 C 123.329 193.870,123.601 193.364,124.106 193.011 C 124.585 192.675,124.771 192.400,124.518 192.400 C 124.264 192.400,123.782 192.675,123.446 193.012 M36.501 194.200 C 36.505 195.080,36.587 195.393,36.683 194.895 C 36.779 194.398,36.775 193.678,36.675 193.295 C 36.575 192.913,36.496 193.320,36.501 194.200 M149.275 194.273 C 148.326 194.609,147.621 194.954,147.707 195.041 C 147.890 195.223,151.600 194.005,151.600 193.762 C 151.600 193.512,151.145 193.612,149.275 194.273 M375.309 196.400 C 375.309 197.390,375.387 197.795,375.482 197.300 C 375.578 196.805,375.578 195.995,375.482 195.500 C 375.387 195.005,375.309 195.410,375.309 196.400 M145.200 195.800 C 144.430 196.097,144.070 196.345,144.400 196.352 C 144.730 196.358,145.540 196.117,146.200 195.814 C 147.745 195.107,147.026 195.097,145.200 195.800 M124.650 200.000 C 124.790 200.770,125.061 201.760,125.254 202.200 C 125.494 202.749,125.524 202.561,125.350 201.600 C 125.210 200.830,124.939 199.840,124.746 199.400 C 124.506 198.851,124.476 199.039,124.650 200.000 M36.162 206.200 C 36.162 209.720,36.224 211.106,36.298 209.281 C 36.372 207.456,36.372 204.576,36.297 202.881 C 36.222 201.186,36.161 202.680,36.162 206.200 M231.965 200.850 C 229.856 201.036,226.886 201.364,225.365 201.578 L 222.600 201.966 225.400 201.781 C 226.940 201.680,230.900 201.397,234.200 201.153 C 239.936 200.729,254.710 200.923,258.126 201.467 L 259.652 201.711 259.382 203.355 C 257.951 212.081,255.442 219.332,249.397 232.211 C 243.706 244.335,241.143 250.076,241.335 250.269 C 241.415 250.348,242.254 248.655,243.199 246.507 C 244.145 244.358,246.062 240.215,247.459 237.300 C 248.857 234.385,251.143 229.615,252.540 226.700 C 256.345 218.762,259.590 208.082,259.741 203.000 L 259.800 201.000 256.200 200.742 C 251.135 200.380,236.539 200.445,231.965 200.850 M220.305 202.283 C 220.802 202.379,221.522 202.375,221.905 202.275 C 222.287 202.175,221.880 202.096,221.000 202.101 C 220.120 202.105,219.807 202.187,220.305 202.283 M216.705 202.683 C 217.202 202.779,217.922 202.775,218.305 202.675 C 218.687 202.575,218.280 202.496,217.400 202.501 C 216.520 202.505,216.207 202.587,216.705 202.683 M126.400 203.200 C 125.576 203.464,125.541 203.526,126.200 203.554 C 126.640 203.573,127.270 203.413,127.600 203.200 C 128.301 202.747,127.814 202.747,126.400 203.200 M213.505 203.083 C 214.002 203.179,214.722 203.175,215.105 203.075 C 215.487 202.975,215.080 202.896,214.200 202.901 C 213.320 202.905,213.007 202.987,213.505 203.083 M209.900 203.482 C 210.395 203.578,211.205 203.578,211.700 203.482 C 212.195 203.387,211.790 203.309,210.800 203.309 C 209.810 203.309,209.405 203.387,209.900 203.482 M206.900 203.876 C 207.285 203.976,207.915 203.976,208.300 203.876 C 208.685 203.775,208.370 203.693,207.600 203.693 C 206.830 203.693,206.515 203.775,206.900 203.876 M201.700 204.676 C 202.085 204.776,202.715 204.776,203.100 204.676 C 203.485 204.575,203.170 204.493,202.400 204.493 C 201.630 204.493,201.315 204.575,201.700 204.676 M191.600 206.400 C 190.256 206.831,191.708 206.831,193.400 206.400 C 194.478 206.126,194.498 206.094,193.600 206.087 C 193.050 206.083,192.150 206.224,191.600 206.400 M186.200 207.600 C 185.181 208.038,186.232 208.038,187.600 207.600 C 188.404 207.343,188.443 207.277,187.800 207.268 C 187.360 207.262,186.640 207.411,186.200 207.600 M180.200 208.989 C 178.052 209.697,178.897 209.724,181.400 209.028 C 182.500 208.722,183.040 208.469,182.600 208.467 C 182.160 208.464,181.080 208.699,180.200 208.989 M173.400 210.800 C 172.896 211.017,172.822 211.144,173.200 211.144 C 173.530 211.144,174.160 210.989,174.600 210.800 C 175.104 210.583,175.178 210.456,174.800 210.456 C 174.470 210.456,173.840 210.611,173.400 210.800 M375.314 215.800 C 375.317 216.900,375.395 217.303,375.487 216.695 C 375.579 216.086,375.577 215.186,375.482 214.695 C 375.387 214.203,375.311 214.700,375.314 215.800 M36.509 218.000 C 36.509 218.990,36.587 219.395,36.682 218.900 C 36.778 218.405,36.778 217.595,36.682 217.100 C 36.587 216.605,36.509 217.010,36.509 218.000 M374.893 221.200 C 374.893 221.970,374.975 222.285,375.076 221.900 C 375.176 221.515,375.176 220.885,375.076 220.500 C 374.975 220.115,374.893 220.430,374.893 221.200 M145.600 221.600 C 144.390 222.239,143.580 222.762,143.800 222.762 C 144.020 222.762,145.190 222.239,146.400 221.600 C 147.610 220.961,148.420 220.438,148.200 220.438 C 147.980 220.438,146.810 220.961,145.600 221.600 M136.202 225.997 C 136.067 226.215,136.537 227.115,137.245 227.997 C 138.941 230.107,139.205 230.057,137.636 227.923 C 136.723 226.681,136.532 226.163,136.901 225.929 C 137.268 225.696,137.274 225.611,136.924 225.606 C 136.662 225.603,136.337 225.778,136.202 225.997 M140.400 232.125 C 140.400 232.194,140.985 232.779,141.700 233.425 L 143.000 234.600 141.825 233.300 C 140.730 232.088,140.400 231.816,140.400 232.125 M144.200 236.400 C 145.059 237.280,145.852 238.000,145.962 238.000 C 146.072 238.000,145.459 237.280,144.600 236.400 C 143.741 235.520,142.948 234.800,142.838 234.800 C 142.728 234.800,143.341 235.520,144.200 236.400 M148.000 240.600 C 149.195 241.810,150.263 242.800,150.373 242.800 C 150.483 242.800,149.595 241.810,148.400 240.600 C 147.205 239.390,146.137 238.400,146.027 238.400 C 145.917 238.400,146.805 239.390,148.000 240.600 M153.800 246.000 C 154.883 247.100,155.860 248.000,155.970 248.000 C 156.080 248.000,155.283 247.100,154.200 246.000 C 153.117 244.900,152.140 244.000,152.030 244.000 C 151.920 244.000,152.717 244.900,153.800 246.000 M160.000 251.314 C 160.000 251.418,161.028 252.380,162.284 253.451 C 163.540 254.523,164.439 255.191,164.283 254.936 C 163.939 254.377,160.000 251.046,160.000 251.314 M239.665 253.817 C 238.995 255.288,239.123 255.602,239.847 254.265 C 240.186 253.640,240.388 253.054,240.296 252.963 C 240.205 252.871,239.921 253.256,239.665 253.817 M238.065 257.817 C 237.395 259.288,237.523 259.602,238.247 258.265 C 238.586 257.640,238.788 257.054,238.696 256.963 C 238.605 256.871,238.321 257.256,238.065 257.817 M169.200 258.949 C 169.200 259.059,170.550 260.252,172.200 261.600 C 173.850 262.948,175.200 263.961,175.200 263.851 C 175.200 263.741,173.850 262.548,172.200 261.200 C 170.550 259.852,169.200 258.839,169.200 258.949 M177.600 265.714 C 177.600 265.818,178.628 266.780,179.884 267.851 C 181.140 268.923,182.039 269.591,181.883 269.336 C 181.539 268.777,177.600 265.446,177.600 265.714 M185.200 272.125 C 185.200 272.194,185.785 272.779,186.500 273.425 L 187.800 274.600 186.625 273.300 C 185.530 272.088,185.200 271.816,185.200 272.125 M189.583 276.100 C 191.241 277.866,191.600 278.184,191.600 277.883 C 191.600 277.819,190.745 276.964,189.700 275.983 L 187.800 274.200 189.583 276.100 M195.600 281.800 C 197.681 283.890,199.474 285.600,199.584 285.600 C 199.694 285.600,198.081 283.890,196.000 281.800 C 193.919 279.710,192.126 278.000,192.016 278.000 C 191.906 278.000,193.519 279.710,195.600 281.800 M230.249 280.615 C 230.112 280.973,230.015 281.566,230.034 281.933 C 230.053 282.300,230.227 282.069,230.421 281.420 C 230.798 280.158,230.665 279.533,230.249 280.615 M200.800 287.400 C 201.546 288.170,202.247 288.800,202.357 288.800 C 202.467 288.800,201.946 288.170,201.200 287.400 C 200.454 286.630,199.753 286.000,199.643 286.000 C 199.533 286.000,200.054 286.630,200.800 287.400 M204.155 291.319 C 205.003 292.353,205.780 293.200,205.882 293.200 C 206.155 293.200,203.621 290.060,203.077 289.724 C 202.822 289.566,203.307 290.284,204.155 291.319 M211.363 301.929 C 212.238 303.620,212.819 303.949,215.633 304.348 C 218.066 304.692,222.193 304.357,222.751 303.769 C 222.888 303.625,222.374 303.641,221.609 303.805 C 217.448 304.698,212.972 303.937,211.922 302.158 C 210.954 300.516,210.546 300.349,211.363 301.929 M225.967 301.566 C 225.853 302.228,225.359 302.702,224.400 303.070 C 223.120 303.561,223.103 303.588,224.200 303.377 C 225.718 303.086,226.526 302.308,226.306 301.347 C 226.165 300.734,226.105 300.773,225.967 301.566 M223.400 308.000 C 222.740 308.168,220.462 308.327,218.337 308.353 C 214.535 308.399,214.479 308.414,214.721 309.300 C 214.898 309.947,215.005 310.020,215.102 309.560 C 215.208 309.050,215.621 308.958,217.146 309.104 C 218.197 309.205,220.467 308.996,222.191 308.640 C 225.991 307.854,225.393 306.625,226.255 317.000 C 226.657 321.840,227.054 325.449,227.137 325.021 C 227.221 324.592,226.972 320.497,226.584 315.921 C 225.815 306.855,226.009 307.336,223.400 308.000 M215.256 310.800 C 215.256 311.130,215.411 311.760,215.600 312.200 C 215.817 312.704,215.944 312.778,215.944 312.400 C 215.944 312.070,215.789 311.440,215.600 311.000 C 215.383 310.496,215.256 310.422,215.256 310.800 M216.861 316.000 C 216.861 316.330,217.103 317.230,217.400 318.000 C 217.697 318.770,217.939 319.130,217.939 318.800 C 217.939 318.470,217.697 317.570,217.400 316.800 C 217.103 316.030,216.861 315.670,216.861 316.000 M79.600 319.725 C 79.600 319.794,80.185 320.379,80.900 321.025 L 82.200 322.200 81.025 320.900 C 79.930 319.688,79.600 319.416,79.600 319.725 M218.063 319.800 C 218.062 320.020,218.303 320.830,218.600 321.600 C 218.897 322.370,219.145 322.730,219.152 322.400 C 219.158 322.070,218.917 321.260,218.614 320.600 C 218.312 319.940,218.064 319.580,218.063 319.800 M328.587 323.300 L 326.200 325.800 328.700 323.413 C 330.075 322.099,331.200 320.974,331.200 320.913 C 331.200 320.617,330.805 320.978,328.587 323.300 M227.309 328.000 C 227.309 328.990,227.387 329.395,227.482 328.900 C 227.578 328.405,227.578 327.595,227.482 327.100 C 227.387 326.605,227.309 327.010,227.309 328.000 M322.786 329.100 L 320.600 331.400 322.900 329.214 C 325.037 327.182,325.383 326.800,325.086 326.800 C 325.024 326.800,323.989 327.835,322.786 329.100 M221.219 328.513 C 221.176 329.228,223.252 332.800,223.707 332.794 C 224.056 332.790,224.069 332.702,223.753 332.494 C 223.508 332.332,222.841 331.300,222.272 330.200 C 221.703 329.100,221.229 328.341,221.219 328.513 M91.200 331.400 C 91.946 332.170,92.647 332.800,92.757 332.800 C 92.867 332.800,92.346 332.170,91.600 331.400 C 90.854 330.630,90.153 330.000,90.043 330.000 C 89.933 330.000,90.454 330.630,91.200 331.400 M192.705 375.483 C 193.202 375.579,193.922 375.575,194.305 375.475 C 194.687 375.375,194.280 375.296,193.400 375.301 C 192.520 375.305,192.207 375.387,192.705 375.483 M217.700 375.476 C 218.085 375.576,218.715 375.576,219.100 375.476 C 219.485 375.375,219.170 375.293,218.400 375.293 C 217.630 375.293,217.315 375.375,217.700 375.476 M202.121 375.898 C 204.277 375.971,207.697 375.970,209.721 375.898 C 211.744 375.825,209.980 375.766,205.800 375.767 C 201.620 375.767,199.964 375.826,202.121 375.898 " stroke="none" fill="#9c8830" fill-rule="evenodd"></path></g></svg>